<svg xmlns="http://www.w3.org/2000/svg" viewBox="0 0 512 640" x="0px" y="0px"><g><path d="M192,415.89a7.845,7.845,0,0,1-1.477,4.6L147.89,480H32V360a8,8,0,0,1,16,0v40a8,8,0,0,0,16,0V360a8,8,0,0,1,16,0v40a8,8,0,0,0,16,0V360a8,8,0,0,1,16,0v40a8,8,0,1,0,16,0V360a8,8,0,0,1,16,0v72a8,8,0,0,0,14.4,4.8l19.232-25.643A7.933,7.933,0,0,1,183.946,408h.161A7.9,7.9,0,0,1,192,415.89ZM384,216a16.019,16.019,0,0,0,16-16v-8H112v8a16.019,16.019,0,0,0,16,16H384ZM281.062,232H230.938l-5.714,40H208v16h96V272H286.776ZM472,352a8.009,8.009,0,0,0-8,8v40a8,8,0,1,1-16,0V360a8,8,0,0,0-16,0v40a8,8,0,1,1-16,0V360a8,8,0,0,0-16,0v40a8,8,0,1,1-16,0V360a8,8,0,0,0-16,0v72a8,8,0,0,1-14.4,4.8l-19.232-25.643A7.933,7.933,0,0,0,328.054,408h-.161a7.892,7.892,0,0,0-6.416,12.489L364.11,480H480V360A8.009,8.009,0,0,0,472,352ZM304,415.89a23.754,23.754,0,0,0,4.47,13.915L310.04,432H201.96l1.57-2.192A23.893,23.893,0,0,0,184.107,392h-.161a24.006,24.006,0,0,0-19.114,9.558L160,408V360a23.943,23.943,0,0,0-8-17.869V336H136a23.9,23.9,0,0,0-16,6.126V320H392v22.126A23.9,23.9,0,0,0,376,336H360v6.131A23.943,23.943,0,0,0,352,360v48l-4.832-6.442A24.006,24.006,0,0,0,328.054,392h-.161A23.92,23.92,0,0,0,304,415.89ZM328,352h16V336H328Zm0,32h16V368H328ZM184,368H168v16h16Zm0-32H168v16h16Zm112,16h16V336H296Zm-32,0h16V336H264Zm0,32h16V368H264Zm-32-32h16V336H232Zm0,32h16V368H232Zm-16-16H200v16h16Zm0-32H200v16h16Zm72,64H224v16h64Zm24-16V368H296v16Zm88-208H112V48a16.019,16.019,0,0,1,16-16H384a16.019,16.019,0,0,1,16,16ZM144,80H128v48h16Zm0-32H128V64h16Zm40,48H168v40h16Zm32,0H200v40h16Zm32,0H232v40h16Zm32,0H264v40h16Zm60,24H300v16h40Zm44,8H368v16H352v16h24a8,8,0,0,0,8-8Zm47.536,192H408v16h23.363c17.9,0,32.937-14.651,32.632-32.552A32.037,32.037,0,0,0,432,272H368a16.016,16.016,0,0,1-15.98-16.806C352.444,246.6,359.859,240,368.464,240h0A15.536,15.536,0,0,0,384,224.461V224H368a32.037,32.037,0,0,0-32,31.448C335.7,273.346,350.734,288,368.637,288H432A16.017,16.017,0,0,1,447.98,304.8C447.556,313.4,440.141,320,431.536,320Z"/></g><text x="0" y="527" fill="#000000" font-size="5px" font-weight="bold" font-family="'Helvetica Neue', Helvetica, Arial-Unicode, Arial, Sans-serif">Created by monkik</text><text x="0" y="532" fill="#000000" font-size="5px" font-weight="bold" font-family="'Helvetica Neue', Helvetica, Arial-Unicode, Arial, Sans-serif">from the Noun Project</text></svg>